PathFileType	4	(X/Y/Z)	/Users/niels/Desktop/University/Third Semester/Perception and Action/Exam/Gymnastics Motion Tracking/Code for Gym Tracking/Analyzed Data/Webcam_Backflip/id1_8_trajectory_Sports2D/id1_8_trajectory_Sports2D_px_person00.trc
DataRate	CameraRate	NumFrames	NumMarkers	Units	OrigDataRate	OrigDataStartFrame	OrigNumFrames
29.71698113207547	29.71698113207547	11	22	m	29.71698113207547	66	106
Frame#	Time	Hip			RHip			RKnee			RAnkle			RBigToe			RSmallToe			RHeel			LHip			LKnee			LAnkle			LBigToe			LSmallToe			LHeel			Neck			Head			Nose			RShoulder			RElbow			RWrist			LShoulder			LElbow			LWrist		
		X1	Y1	Z1	X2	Y2	Z2	X3	Y3	Z3	X4	Y4	Z4	X5	Y5	Z5	X6	Y6	Z6	X7	Y7	Z7	X8	Y8	Z8	X9	Y9	Z9	X10	Y10	Z10	X11	Y11	Z11	X12	Y12	Z12	X13	Y13	Z13	X14	Y14	Z14	X15	Y15	Z15	X16	Y16	Z16	X17	Y17	Z17	X18	Y18	Z18	X19	Y19	Z19	X20	Y20	Z20	X21	Y21	Z21	X22	Y22	Z22
66	2.220952380952381	0.9335646415272221	-0.7158879870388011	0.0	0.9350841246131697	-0.7138612236618781	0.0	1.0116851568422827	-0.8162483928222417	0.0	0.9568659420784565	-0.9282266880786346	0.0	0.9990318405116119	-0.9500317165602061	0.0	0.9856951107041113	-0.9534826720058801	0.0	0.9422723317302452	-0.9380630356626087	0.0	0.9354998562356125	-0.7113298399840116	0.0	1.0021903438166242	-0.8146265584607064	0.0	0.9584248914076215	-0.9230761332025813	0.0	1.004666127429702	-0.9451355179307129	0.0	0.9921234305738981	-0.9413180011772454	0.0	0.940146426335939	-0.9319344418570781	0.0	0.9550779877150342	-0.5455247246917223	0.0	0.9800794329285781	-0.46503348351494855	0.0	0.9946412914024932	-0.5130316994641329	0.0	0.9514441676794673	-0.5678547666835704	0.0	1.006316243422397	-0.6133712631448821	0.0	1.0662576490434408	-0.6310425002745368	0.0	0.9496998812167546	-0.564627762029862	0.0	1.0045818048234856	-0.6106189795264023	0.0	1.0630440342510834	-0.6255962986502338	0.0
67	2.2546031746031745	0.9363059752838978	-0.7283181951455644	0.0	0.9378359289244296	-0.726584918125929	0.0	1.0062666224874908	-0.8341671124252177	0.0	0.9566836391265402	-0.9451120074721507	0.0	0.9963780206215062	-0.9668131427724898	0.0	0.9837753817549254	-0.9710687682786544	0.0	0.942629713415084	-0.9555547783260189	0.0	0.9370754355708325	-0.7238247014176561	0.0	0.9941357126182276	-0.8326453260774259	0.0	0.956202000735248	-0.9420682633541467	0.0	0.9997157495759241	-0.9616354243404391	0.0	0.9859039408792596	-0.9592445134040022	0.0	0.9382836235936636	-0.9503809432399266	0.0	0.9442111608833249	-0.5571471585275649	0.0	0.9599035420310257	-0.47381717443722876	0.0	0.9797544321352285	-0.5202312745080824	0.0	0.9431974895595293	-0.5763257231588047	0.0	1.0115146275321234	-0.5964553534129585	0.0	1.0732306324385354	-0.5845824749689955	0.0	0.9412729425610833	-0.5732033862313616	0.0	1.0083997862419074	-0.5941718165831028	0.0	1.067946772872865	-0.5818963085015658	0.0
68	2.2882539682539678	0.9403526565934431	-0.729414879208699	0.0	0.9416923160711773	-0.7283388897187018	0.0	0.9997253536116305	-0.8421033138353218	0.0	0.9561103421638689	-0.9541301250469056	0.0	0.9928344798559848	-0.9760038334369426	0.0	0.9813680441638091	-0.9809116572791566	0.0	0.9429955157386507	-0.9661418093276031	0.0	0.9404104525927781	-0.7252374555359332	0.0	0.9857432232474586	-0.8406052855954225	0.0	0.9539432302956975	-0.9527723605113332	0.0	0.9943142795761949	-0.9708610857953789	0.0	0.9802644873215642	-0.9699761412663751	0.0	0.936872634906328	-0.9613063054190537	0.0	0.9324640874476182	-0.5596920077636328	0.0	0.9374383803658166	-0.47459591807508233	0.0	0.9625970183106132	-0.5179845892747533	0.0	0.932630114951948	-0.5746416445105509	0.0	1.004552676042066	-0.5666900751588089	0.0	1.058231189273979	-0.5279271965486543	0.0	0.9313386985150288	-0.5719045937486426	0.0	1.0012028430993665	-0.565665987617181	0.0	1.0524672871871237	-0.5279785156144761	0.0
69	2.3219047619047615	0.9449877899717979	-0.717456202512374	0.0	0.9461389065591641	-0.7175689062020231	0.0	0.9933251647897866	-0.8373493434898795	0.0	0.9556599084768569	-0.9527957712331367	0.0	0.9887717015049793	-0.975642175471398	0.0	0.9785504291386274	-0.9808208216892204	0.0	0.9438469032641398	-0.9671833805096439	0.0	0.9450309745964514	-0.7139454887596338	0.0	0.9791886807883836	-0.8357442056975357	0.0	0.9526202105533377	-0.9522400478247524	0.0	0.9893890595133282	-0.9705455300276719	0.0	0.9762304002525002	-0.9709348366366837	0.0	0.9366672130614593	-0.9618356579842948	0.0	0.9195169413286888	-0.5523706109806121	0.0	0.9125055863546506	-0.4664183351909832	0.0	0.9426701386154349	-0.505730334785697	0.0	0.9197253228381357	-0.5628035080197528	0.0	0.9855359502475308	-0.5280437432842688	0.0	1.024517075895688	-0.46868776531682776	0.0	0.919233732050935	-0.5606165559981288	0.0	0.9828383055229195	-0.5285790052187099	0.0	1.0193367967919267	-0.47092599375856103	0.0
70	2.355555555555555	0.9491311590802232	-0.6932840141696236	0.0	0.9503514499174484	-0.6948658278501403	0.0	0.988933552030901	-0.818968613970479	0.0	0.9562291196413455	-0.9396896037184191	0.0	0.9854899989013437	-0.9651213225518542	0.0	0.9762546805050927	-0.9701307980548496	0.0	0.9457665526243357	-0.9568040897215349	0.0	0.9500020306716171	-0.6905708143397947	0.0	0.9764780272321232	-0.8172127236957362	0.0	0.9533778313932182	-0.9389005118893634	0.0	0.9865829344733741	-0.959799245219803	0.0	0.9752733845679324	-0.960925807320323	0.0	0.9383620666347556	-0.9502746746086091	0.0	0.9051260978774623	-0.535784347425647	0.0	0.8853804679311365	-0.44964742975936517	0.0	0.920069454727837	-0.4845322454363264	0.0	0.9046905646268366	-0.5421709577300157	0.0	0.9565165615137785	-0.4848184936611497	0.0	0.9781469877504534	-0.41237620223751226	0.0	0.9048368520997808	-0.5406322097624028	0.0	0.9550193435724936	-0.48686177698727073	0.0	0.97422903640309	-0.4162282694368923	0.0
71	2.389206349206349	0.9515625774093236	-0.659915696707511	0.0	0.9532739603286748	-0.662714108511348	0.0	0.9886275635314736	-0.7875824895389615	0.0	0.9589507240492509	-0.9143576979928714	0.0	0.98493941070343	-0.9445047551811525	0.0	0.9762188525799509	-0.9489502656435407	0.0	0.9493751941280067	-0.9338761713865861	0.0	0.9539980152837705	-0.6577151727276789	0.0	0.978995586600734	-0.7857903846607077	0.0	0.9572480557649491	-0.9125473555110372	0.0	0.9879150630212068	-0.9386356893314982	0.0	0.978893633229477	-0.9397860477987438	0.0	0.9425827436329444	-0.9260009722907043	0.0	0.8893273452309469	-0.5116973142379204	0.0	0.8572248378391185	-0.425953605975689	0.0	0.8958957248002041	-0.4567679128299534	0.0	0.8878604113358659	-0.5149735065490492	0.0	0.920931629494394	-0.4408883174974038	0.0	0.9256870236495071	-0.3621412066285909	0.0	0.8886402659116688	-0.5141246995678111	0.0	0.9209052927227913	-0.44418654456272283	0.0	0.9236231636277777	-0.3673604527593788	0.0
72	2.4228571428571426	0.9513415887978807	-0.6213541852389762	0.0	0.9538427330218333	-0.6246849564632541	0.0	0.9937279072867984	-0.7447184687629995	0.0	0.9649675921246351	-0.8770651451259921	0.0	0.9891350882471651	-0.9135678445945002	0.0	0.9805053488439847	-0.9172547600282696	0.0	0.9554170382197985	-0.8980700860935265	0.0	0.9556369457729216	-0.6191488643878348	0.0	0.9870824573654848	-0.7430792441898494	0.0	0.9649487992050286	-0.8739656713599513	0.0	0.9948460005082684	-0.9070730386462161	0.0	0.9879255080212598	-0.907676390763344	0.0	0.9499448145763277	-0.8893288782668614	0.0	0.8724119559851499	-0.48256005398811497	0.0	0.8298950113755046	-0.39779618803549094	0.0	0.8718610822130786	-0.42540366053719997	0.0	0.8696745872959698	-0.4837067167647376	0.0	0.8828484472661218	-0.3992143370122871	0.0	0.8727803670764127	-0.31933912441073453	0.0	0.8714268901791165	-0.48355244255313024	0.0	0.8844162226066393	-0.40342250249006956	0.0	0.873168538870999	-0.3260089999620136	0.0
73	2.4565079365079363	0.9481919944194153	-0.5816729002271924	0.0	0.9513605728063272	-0.5847426262353463	0.0	1.0037835687167045	-0.6922706207698713	0.0	0.9750977420942256	-0.8286358221338266	0.0	0.99968288112036	-0.8713697983220455	0.0	0.9909510323053718	-0.8744522401355431	0.0	0.9647301586214123	-0.8500146827442275	0.0	0.9539031593539301	-0.5791102119948528	0.0	0.9994866058101556	-0.6909570125102827	0.0	0.9767846531737316	-0.8244660841260246	0.0	1.007894455289514	-0.8645632019411481	0.0	1.002543792375496	-0.8644624202646317	0.0	0.9611057857742503	-0.8413646438463149	0.0	0.8548083509585302	-0.4510785815595065	0.0	0.8049914702399885	-0.3679316088806121	0.0	0.8493474905727695	-0.39330155669093075	0.0	0.8507124399363104	-0.4508131140138977	0.0	0.8462425759495327	-0.3617645525998175	0.0	0.8239752260607739	-0.2840914915421944	0.0	0.8538424899922574	-0.4513862922914154	0.0	0.8493995992019229	-0.36652835391013994	0.0	0.8271511466285674	-0.292371609878003	0.0
74	2.49015873015873	0.9425984491380435	-0.5442894881112263	0.0	0.945906580889198	-0.5465231470409736	0.0	1.0161439700978265	-0.6323592794423889	0.0	0.9894726763481791	-0.7702548567083968	0.0	1.01730240111335	-0.8165184332409322	0.0	1.008622859144746	-0.8194974955800287	0.0	0.9780736055922002	-0.7912029237534596	0.0	0.9485113489698525	-0.541428964820102	0.0	1.013160533963577	-0.6315674068521961	0.0	0.992486777074921	-0.7654392024464046	0.0	1.0268132359246442	-0.809961959265201	0.0	1.0225421365528993	-0.8093196047263647	0.0	0.9765835659228773	-0.7836391200304188	0.0	0.8370579665979678	-0.4200211838408987	0.0	0.7830279220329605	-0.3391405611634396	0.0	0.8288327154667663	-0.36287528202150016	0.0	0.8318199359691605	-0.41872426984080874	0.0	0.8145388896661631	-0.3297835252306076	0.0	0.783066358416118	-0.2558281157045126	0.0	0.8362839761161565	-0.4201632936106125	0.0	0.8189679649074735	-0.3348021822062351	0.0	0.7887206308852465	-0.2656095907779442	0.0
75	2.5238095238095233	0.9355311955897055	-0.5112829691241104	0.0	0.9384370399649001	-0.512522376695746	0.0	1.0264821704619673	-0.5674711640045433	0.0	1.007263543891222	-0.703403717375527	0.0	1.0411232018985634	-0.7479072224852733	0.0	1.0330531185071483	-0.7515739120538042	0.0	0.9957527834661282	-0.7236653532598428	0.0	0.9401181684918669	-0.5084664878333086	0.0	1.0238433294717537	-0.5674695272360628	0.0	1.010969829235468	-0.6982258269134829	0.0	1.050365064541543	-0.742071867862538	0.0	1.0469122894779848	-0.7411206922062075	0.0	0.9962186173504851	-0.717780455044875	0.0	0.8198197291264939	-0.3920094717786342	0.0	0.7637157157878511	-0.31386182495900566	0.0	0.8102096840309551	-0.3360294171684708	0.0	0.8141155606995581	-0.38983698519296045	0.0	0.790218023377919	-0.30394951620424443	0.0	0.7528397709906834	-0.23377165112296902	0.0	0.819096864160502	-0.39232490535831843	0.0	0.7951579343206702	-0.309034815211854	0.0	0.759979842368566	-0.24449714238181539	0.0
76	2.557460317460317	0.9281161823758411	-0.483271064553032	0.0	0.9304442409937764	-0.4837411499890712	0.0	1.0301726865184069	-0.5006701499288518	0.0	1.0264525407301335	-0.6299274283669211	0.0	1.0678107606797198	-0.6655476788027741	0.0	1.0611644766251582	-0.6708874599537281	0.0	1.016872516859876	-0.6496057810114739	0.0	0.9302451526382348	-0.4807265675163228	0.0	1.0273156862822657	-0.5017019507873897	0.0	1.0301038812554402	-0.6243500854413969	0.0	1.075536488941967	-0.6606574579105396	0.0	1.0728075564405275	-0.6596448607533799	0.0	1.0185660502097291	-0.6454071236712385	0.0	0.8037755146962776	-0.3690287519289128	0.0	0.7468133592536806	-0.29375237358116457	0.0	0.7935374493025319	-0.3140818138486162	0.0	0.7986563671098272	-0.36611232968010604	0.0	0.7744454965899987	-0.2843760273849845	0.0	0.7343634083385814	-0.2172029405325409	0.0	0.8028079808386346	-0.36965959931865927	0.0	0.7788873082584691	-0.28947828962093214	0.0	0.7417115584509925	-0.22803569243118402	0.0
